<?xml version="1.0" encoding="UTF-8"?>
<svg version="1.1" xmlns="http://www.w3.org/2000/svg" width="423" height="458">
<path d="M0 0 C1.19493073 0.0679628 1.19493073 0.0679628 2.41400146 0.13729858 C4.09904224 0.23711058 5.78351064 0.3470265 7.46728516 0.46630859 C10.02290043 0.6467448 12.57884795 0.79686312 15.13671875 0.94140625 C16.77875687 1.04248281 18.42068939 1.1452928 20.0625 1.25 C20.81799133 1.29597321 21.57348267 1.34194641 22.35186768 1.38931274 C31.32145926 2.04053783 38.87883683 4.00144999 45.796875 10.0234375 C52.09083485 17.93199988 52.10058405 25.36518467 52.359375 35.1484375 C52.38055389 35.89934662 52.40173279 36.65025574 52.42355347 37.42391968 C53.26856049 68.60599864 52.88008388 99.83293767 52.796875 131.0234375 C53.8270726 130.53579926 54.8572702 130.04816101 55.91868591 129.54574585 C57.2835385 128.903251 58.64845586 128.26089373 60.01342773 127.61865234 C60.69085777 127.2975499 61.36828781 126.97644745 62.06624603 126.64561462 C66.61217869 124.51105988 70.96339368 122.83041306 75.859375 121.6484375 C77.04660156 121.35195312 78.23382813 121.05546875 79.45703125 120.75 C104.00521091 115.40969425 128.57001803 118.81284243 150.796875 130.0234375 C151.84359375 130.54679688 152.8903125 131.07015625 153.96875 131.609375 C176.38863603 143.7683079 193.98962706 165.74178987 201.42236328 190.07080078 C209.34455866 218.09969644 206.95538777 247.00582757 192.94824219 272.73950195 C189.77834982 278.3148266 186.03478363 283.21130842 181.796875 288.0234375 C181.12140625 288.84199219 180.4459375 289.66054688 179.75 290.50390625 C166.70165046 305.8619089 147.5364149 317.65796233 127.796875 322.0234375 C126.6368396 322.28181396 126.6368396 322.28181396 125.45336914 322.54541016 C107.72940246 326.16662631 88.04748855 325.60565851 70.796875 320.0234375 C70.15540527 319.81976563 69.51393555 319.61609375 68.85302734 319.40625 C43.03313078 310.89376311 22.79657116 292.09802955 10.484375 268.1484375 C1.26788705 249.36947341 -0.50254023 230.78172966 -0.6171875 210.14453125 C-0.6360518 207.96457779 -0.655678 205.78463081 -0.67601013 203.60469055 C-0.72784596 197.7648814 -0.76743015 191.92504975 -0.80421829 186.08512878 C-0.83615364 181.24381711 -0.87515678 176.4025722 -0.91398716 171.56131172 C-1.26028494 128.04897294 -1.32390728 84.53682915 -1.203125 41.0234375 C-0.21916748 40.84953491 -0.21916748 40.84953491 0.78466797 40.67211914 C3.74764949 40.14659831 6.70976154 39.61632832 9.671875 39.0859375 C11.22068359 38.81233398 11.22068359 38.81233398 12.80078125 38.53320312 C13.78691406 38.35595703 14.77304688 38.17871094 15.7890625 37.99609375 C16.70026855 37.83375244 17.61147461 37.67141113 18.55029297 37.50415039 C20.81882196 37.11669963 20.81882196 37.11669963 22.796875 36.0234375 C21.79269531 35.27320313 20.78851563 34.52296875 19.75390625 33.75 C11.05069432 27.23996753 2.37300072 20.70047755 -6.203125 14.0234375 C-7.58757812 12.98703125 -7.58757812 12.98703125 -9 11.9296875 C-11.203125 10.0234375 -11.203125 10.0234375 -12.265625 7.0234375 C-12.203125 4.0234375 -12.203125 4.0234375 -10.71191406 1.83740234 C-7.19277536 -0.70708973 -4.14225681 -0.31527741 0 0 Z M64.796875 189.0234375 C55.85182429 200.49145123 51.53928635 214.04372124 53.203125 228.5703125 C55.72371534 242.31353128 62.39459255 253.34765144 73.36328125 262.0625 C84.88169278 269.94263598 97.08737511 272.34664296 110.796875 271.0234375 C124.52721246 268.44804679 135.58239487 261.2903801 143.796875 250.0234375 C151.69905854 236.57615951 154.66194435 223.78936792 150.86328125 208.44140625 C146.81476412 195.46538981 139.38817451 184.88779299 127.3515625 178.26953125 C105.47772258 167.6001812 81.72839647 170.8847326 64.796875 189.0234375 Z " fill="#0D9045" transform="translate(204.203125,-0.0234375)"/>
<path d="M0 0 C1.25606049 -0.0071553 2.51212097 -0.01431061 3.8062439 -0.02168274 C5.19580053 -0.0245228 6.58535744 -0.02723455 7.97491455 -0.02983093 C9.44033976 -0.03609841 10.9057634 -0.04274546 12.3711853 -0.04974365 C17.18081563 -0.07075196 21.99044617 -0.08114275 26.80010986 -0.09111023 C28.45791897 -0.09515894 30.11572791 -0.09927589 31.77353668 -0.10346031 C39.56259439 -0.12250458 47.35164267 -0.13673743 55.14071918 -0.14507228 C64.12291076 -0.15484339 73.10485582 -0.18116271 82.08696055 -0.22157317 C89.03573079 -0.25175977 95.98443045 -0.26654355 102.93326497 -0.26985329 C107.08071036 -0.27220079 111.22789215 -0.28112201 115.37526703 -0.30631447 C119.27908299 -0.32964508 123.18246272 -0.33380863 127.08633041 -0.32355309 C128.51493915 -0.32305883 129.94356974 -0.32934677 131.37211227 -0.34310913 C140.46750287 -0.42579373 146.96454514 -0.07077502 154.08526611 6.04170227 C160.32992682 13.5018687 163.33959552 20.79192277 163.14385986 30.62763977 C161.59263767 45.34143853 150.2203668 54.01205323 139.95635986 63.32295227 C137.41847766 65.63285784 134.97144245 68.01134263 132.56573486 70.45967102 C130.13101208 72.93505723 127.63976764 75.26303459 125.00323486 77.52217102 C121.81140978 80.26338551 118.8352051 83.1540299 115.87823486 86.14717102 C112.35717164 89.71117404 108.74637479 93.0502127 104.94073486 96.30342102 C102.48898798 98.49513415 100.18937914 100.80784206 97.87823486 103.14717102 C94.98231529 106.07835293 92.07580915 108.91120276 88.94073486 111.58467102 C84.50544199 115.36957471 80.46625375 119.52856884 76.39385986 123.69404602 C74.2996304 125.73624493 72.23008834 127.42846093 69.87823486 129.14717102 C71.04032974 129.15081665 72.20242462 129.15446228 73.3997345 129.15821838 C84.36124895 129.19518915 95.32248301 129.25298486 106.28378391 129.33107376 C111.91887627 129.37055176 117.55381228 129.40273881 123.18902588 129.41816711 C128.62921952 129.43333134 134.06898334 129.46777333 139.50898552 129.51548004 C141.58252154 129.53029614 143.65611893 129.53821216 145.72970772 129.53905487 C148.63848609 129.54142553 151.5460776 129.56851382 154.45465088 129.60127258 C155.30845337 129.59624222 156.16225586 129.59121185 157.04193115 129.58602905 C162.79057235 129.68593468 166.136249 130.85905913 170.87823486 134.14717102 C175.44060206 139.00883895 177.85843555 144.9068439 180.62823486 150.89717102 C181.13483643 151.94388977 181.64143799 152.99060852 182.16339111 154.06904602 C185.59773489 161.47463907 187.61265473 167.4003377 184.69073486 175.39717102 C180.82379546 181.26425149 177.72024953 183.56608791 170.87823486 185.14717102 C168.42293007 185.32313443 165.95963043 185.40386857 163.49803162 185.40786743 C162.43383648 185.41360575 162.43383648 185.41360575 161.34814245 185.41946 C158.98854871 185.42971718 156.62920164 185.42581182 154.26959229 185.42182922 C152.57051876 185.42617979 150.8714472 185.43136409 149.17237854 185.43731689 C144.56894045 185.45068245 139.96558459 185.45128818 135.36213088 185.4487536 C131.51294209 185.44768202 127.6637698 185.45257213 123.81458455 185.45735902 C114.72926201 185.4684462 105.64398082 185.46889634 96.55865479 185.46284485 C87.20137167 185.45680779 77.84423902 185.46911109 68.48698157 185.49041492 C60.44003188 185.5080586 52.39312997 185.51402783 44.34616166 185.51077718 C39.54595587 185.50896826 34.74585737 185.51156111 29.94566917 185.52549171 C25.42873684 185.53811016 20.91203812 185.53608811 16.39510918 185.52308083 C14.74320648 185.52072406 13.09128713 185.52341728 11.43940353 185.53170395 C0.49335938 185.58262833 -10.31166208 185.55566677 -19.12176514 178.14717102 C-25.11436924 171.54954439 -27.40738165 165.82611985 -26.99676514 156.83467102 C-25.12342218 139.68187459 -13.65659398 130.48784004 -1.00848389 119.81513977 C2.29924966 116.89091156 5.33905837 113.69292284 8.44073486 110.55342102 C11.13107392 107.89757349 13.94397011 105.4458167 16.81573486 102.99092102 C19.26748175 100.79920789 21.56709059 98.48649998 23.87823486 96.14717102 C27.39929809 92.583168 31.01009494 89.24412934 34.81573486 85.99092102 C37.26748175 83.79920789 39.56709059 81.48649998 41.87823486 79.14717102 C45.37029817 75.6125864 48.94790642 72.30248178 52.72589111 69.08076477 C56.02008862 66.12136773 59.10767215 62.95999181 62.19830322 59.78999329 C65.67419297 56.24919197 65.67419297 56.24919197 67.87823486 55.14717102 C66.95639404 55.14352539 66.03455322 55.13987976 65.08477783 55.13612366 C56.37509873 55.09817503 47.66579146 55.04124432 38.95637512 54.96326828 C34.47930487 54.92384682 30.00242973 54.89163233 25.52520752 54.87617493 C21.20018074 54.86097302 16.87569055 54.82646539 12.55090332 54.778862 C10.90523964 54.76408449 9.25949934 54.7561321 7.61376953 54.75528717 C-8.25035105 54.73895878 -8.25035105 54.73895878 -15.12176514 50.14717102 C-16.00864014 49.59029602 -16.89551514 49.03342102 -17.80926514 48.45967102 C-24.46163537 41.80730078 -26.40680785 34.39030683 -26.4430542 25.32368469 C-26.35035739 19.7499757 -25.47325531 15.70892154 -22.12176514 11.14717102 C-21.54426514 10.26029602 -20.96676514 9.37342102 -20.37176514 8.45967102 C-14.39717722 2.31912233 -8.44759325 0.03305695 0 0 Z " fill="#0E9045" transform="translate(27.12176513671875,131.8528289794922)"/>
<path d="M0 0 C5.1868047 4.1450106 8.69010392 9.10810819 10.015625 15.7109375 C10.93427258 24.4305596 8.8682039 30.56173182 3.953125 37.7109375 C-0.16273452 42.26332757 -5.18936928 45.91563959 -9.984375 49.7109375 C-11.03901276 50.57660152 -12.09237669 51.44381952 -13.14453125 52.3125 C-27.18268606 63.78480944 -42.54596448 73.10734073 -58.984375 80.7109375 C-59.6134375 81.00806641 -60.2425 81.30519531 -60.890625 81.61132812 C-114.56168249 106.85212258 -178.14022192 109.80951728 -233.984375 89.7109375 C-263.69014059 78.4756651 -290.78563905 62.43260038 -313.984375 40.7109375 C-314.933125 39.8653125 -315.881875 39.0196875 -316.859375 38.1484375 C-322.31814657 31.8869054 -323.71890509 26.28466982 -323.4296875 17.96484375 C-322.38567784 10.33624687 -318.79043516 4.72849098 -312.92578125 -0.1328125 C-306.41441699 -4.01080812 -299.33259082 -4.11897864 -291.984375 -3.2890625 C-285.52538014 -1.28516382 -281.47958477 2.14492921 -276.84521484 6.8894043 C-273.9336038 9.73951319 -270.75502731 12.16474175 -267.484375 14.5859375 C-266.79150391 15.1005957 -266.09863281 15.61525391 -265.38476562 16.14550781 C-245.30512042 30.83592944 -222.77152931 41.38742294 -198.671875 47.5234375 C-197.90907227 47.71832764 -197.14626953 47.91321777 -196.36035156 48.11401367 C-183.37805895 51.23841142 -170.58468818 52.08847751 -157.296875 52.0234375 C-156.10624954 52.02020477 -156.10624954 52.02020477 -154.89157104 52.01690674 C-143.03099408 51.96526308 -131.54807956 51.57867439 -119.984375 48.7109375 C-119.16582031 48.51226074 -118.34726563 48.31358398 -117.50390625 48.10888672 C-86.91146319 40.47792418 -58.49530444 26.69336841 -35.484375 4.91015625 C-25.0829029 -4.23988874 -12.33026844 -8.00982005 0 0 Z " fill="#7CC041" transform="translate(359.984375,355.2890625)"/>
</svg>
