<?xml version="1.0" encoding="UTF-8"?>
<svg version="1.1" xmlns="http://www.w3.org/2000/svg" width="118" height="125">
<path d="M0 0 C2.08400734 0.03312728 4.16745766 0.10263869 6.25 0.1875 C7.41015625 0.22230469 8.5703125 0.25710937 9.765625 0.29296875 C13.92018582 1.20115173 14.72304211 2.47555987 17 6 C17.54589844 8.9543457 17.54589844 8.9543457 17.609375 12.17578125 C17.64160156 13.33271484 17.67382812 14.48964844 17.70703125 15.68164062 C17.72121094 16.87982422 17.73539063 18.07800781 17.75 19.3125 C17.77964844 20.53001953 17.80929688 21.74753906 17.83984375 23.00195312 C17.91041823 26.00136833 17.96317864 29.0000117 18 32 C19.08667969 31.67644531 20.17335938 31.35289063 21.29296875 31.01953125 C28.58590679 29.01378117 35.16816366 29.88609898 42 33 C49.38262112 38.01787529 53.1976264 43.59287919 56 52 C56.88588541 60.72814972 55.69840183 68.28273259 50.19921875 75.296875 C44.01259217 81.87992619 37.80476763 84.54472411 28.8125 85.25 C20.22543494 84.68691377 14.1698527 82.24833952 7.9140625 76.2578125 C3.01787008 70.48230389 0.89735704 63.46888666 0.83886719 55.98779297 C0.82925964 54.99351288 0.8196521 53.99923279 0.80975342 52.974823 C0.8033786 51.37466843 0.8033786 51.37466843 0.796875 49.7421875 C0.79117493 48.64278839 0.78547485 47.54338928 0.77960205 46.41067505 C0.77016367 44.08906006 0.76362269 41.76743175 0.75976562 39.44580078 C0.75001806 35.88160232 0.71896642 32.31797043 0.6875 28.75390625 C0.68097397 26.50000343 0.67572193 24.24609648 0.671875 21.9921875 C0.6595282 20.92136932 0.6471814 19.85055115 0.63446045 18.74728394 C0.63746155 17.75930817 0.64046265 16.7713324 0.64355469 15.75341797 C0.63990906 14.88167938 0.63626343 14.0099408 0.63250732 13.11178589 C0.8144162 12.06645187 0.8144162 12.06645187 1 11 C1.99 10.34 2.98 9.68 4 9 C2.02 7.35 0.04 5.7 -2 4 C-1.34 2.68 -0.68 1.36 0 0 Z M18.625 51.6875 C16.85731672 55.29085438 16.4613074 57.15535199 17.19921875 61.03125 C18.74366406 64.82832529 21.45424137 67.06851319 25 69 C29.42234474 69.77584995 31.34624528 69.34537985 35.3125 67.25 C39.11620599 64.06550196 39.83015543 62.52860114 40.375 57.625 C39.92573223 53.2820782 38.8337428 51.29326866 36 48 C29.01647543 44.06057589 23.7358359 45.90418569 18.625 51.6875 Z " fill="#FEFEFE" transform="translate(56,5)"/>
<path d="M0 0 C0.9170874 -0.00619858 1.8341748 -0.01239716 2.77905273 -0.01878357 C4.71564676 -0.02587917 6.65230182 -0.02271225 8.58886719 -0.01000977 C11.55257287 0.00385979 14.51312334 -0.03022146 17.4765625 -0.06835938 C19.35937577 -0.06931055 21.242193 -0.06745182 23.125 -0.0625 C24.45325806 -0.08238731 24.45325806 -0.08238731 25.80834961 -0.10267639 C31.94159303 -0.00980161 31.94159303 -0.00980161 35.109375 2.92993164 C36.98427541 6.33165368 37.389103 7.73397418 36.5625 11.56640625 C34.52436348 14.52816959 32.09035006 17.01944202 29.5625 19.56640625 C28.89089844 20.26378906 28.21929687 20.96117188 27.52734375 21.6796875 C23.72022603 25.57483107 19.7690141 29.11169467 15.5625 32.56640625 C16.52289185 32.54900391 16.52289185 32.54900391 17.50268555 32.53125 C20.41972348 32.50167026 23.33302588 32.53344609 26.25 32.56640625 C27.25740234 32.54707031 28.26480469 32.52773437 29.30273438 32.5078125 C36.62049484 32.65271865 36.62049484 32.65271865 39.36547852 35.31518555 C41.28585389 38.31442349 42.42574136 40.88261305 43.125 44.37890625 C42.36039208 47.35238148 41.14474659 47.97842276 38.5625 49.56640625 C36.33082581 49.9540863 36.33082581 49.9540863 33.87329102 49.97045898 C32.94875626 49.98314316 32.0242215 49.99582733 31.07167053 50.00889587 C30.07993332 50.00596024 29.08819611 50.0030246 28.06640625 50 C26.52786232 50.00786278 26.52786232 50.00786278 24.95823669 50.0158844 C22.79044499 50.02230381 20.62261846 50.02096867 18.45483398 50.01245117 C15.14048109 50.00394598 11.8278543 50.03269724 8.51367188 50.06445312 C6.40625052 50.06606537 4.29882611 50.06548717 2.19140625 50.0625 C1.20169327 50.07373398 0.21198029 50.08496796 -0.807724 50.09654236 C-5.1311955 50.05282257 -7.75506448 49.95701675 -11.56274414 47.77758789 C-13.83469223 45.0979377 -14.15922286 43.0684343 -13.9140625 39.578125 C-12.55081742 33.8234429 -6.79849024 30.03332379 -2.5078125 26.37890625 C0.67108261 23.59587355 3.61800248 20.59371776 6.5625 17.56640625 C5.60988281 17.52902344 4.65726563 17.49164063 3.67578125 17.453125 C2.42152344 17.38738281 1.16726562 17.32164063 -0.125 17.25390625 C-1.98705078 17.16689453 -1.98705078 17.16689453 -3.88671875 17.078125 C-7.53142151 16.55287081 -9.51717713 15.76071194 -12.4375 13.56640625 C-13.98336876 10.47466873 -13.73109521 7.97211073 -13.4375 4.56640625 C-10.06528674 -0.60190216 -5.60486089 -0.0313938 0 0 Z " fill="#FEFEFE" transform="translate(19.4375,38.43359375)"/>
<path d="M0 0 C3.6970127 0.97255909 6.14789961 3.33525969 9.01953125 5.7734375 C18.3260669 13.37895433 29.60488291 14.5710039 41.2421875 13.58984375 C51.01051522 11.73818572 59.18794177 7.64408948 66.2421875 0.58984375 C73.28020146 0.03127121 73.28020146 0.03127121 76.1796875 1.71484375 C77.83998015 4.64477196 78.3718052 6.15497463 78.2421875 9.58984375 C73.18260315 18.57654231 62.76321945 23.50435161 53.4921875 27.02734375 C40.14600087 30.75523868 22.73458567 30.83604284 10.2421875 24.58984375 C9.283125 24.1309375 8.3240625 23.67203125 7.3359375 23.19921875 C-5.8103847 16.48469935 -5.8103847 16.48469935 -8.7578125 10.58984375 C-9.03537834 7.39783654 -9.00745848 5.18275295 -7.7578125 2.21484375 C-5.25134667 0.17834026 -3.20295523 -0.14665546 0 0 Z " fill="#90D70A" transform="translate(23.7578125,94.41015625)"/>
<path d="M0 0 C0.33 0.66 0.66 1.32 1 2 C-0.11375 2.12375 -1.2275 2.2475 -2.375 2.375 C-6.03103677 2.6465813 -6.03103677 2.6465813 -8 5 C-8.69748583 6.31747324 -9.36959957 7.64914193 -10 9 C-10.88910615 6.09019806 -11.22167778 4.54680518 -10.0625 1.6875 C-6.83426664 -0.95378184 -4.08676931 -0.26798487 0 0 Z " fill="#8FD71D" transform="translate(26,95)"/>
<path d="M0 0 C4.66666667 2.33333333 9.33333333 4.66666667 14 7 C5.07081668 7.45402627 5.07081668 7.45402627 1 4 C0.37109375 1.890625 0.37109375 1.890625 0 0 Z " fill="#96DD14" transform="translate(33,101)"/>
</svg>
